<svg xmlns="http://www.w3.org/2000/svg" viewBox="0 0 192 192" fill="white"><path d="M141.537 88.988C140.71 88.59 139.87 88.21 139.019 87.856C137.537 60.538 122.616 44.905 97.562 44.745C97.449 44.744 97.336 44.744 97.223 44.745C86.979 44.745 77.792 49.049 70.801 56.143L79.621 64.963C84.546 60.041 91.246 57.589 97.974 57.701C98.075 57.703 98.177 57.703 98.279 57.701C110.983 57.701 121.631 68.113 123.169 80.605C115.595 80.048 107.554 80.569 100.493 82.499C85.589 86.59 77.375 97.329 79.389 109.989C80.377 116.234 83.602 121.991 88.448 126.164C96.565 133.109 108.402 135.877 119.475 133.323C131.656 130.522 141.387 121.317 145.787 109.444C149.041 100.567 149.028 91.032 145.756 82.642C144.508 79.437 142.652 76.488 140.29 73.995C141.183 78.715 141.653 83.587 141.537 88.988ZM98.577 121.726C92.551 121.527 87.332 117.29 86.108 111.036C84.788 104.309 88.723 96.739 101.754 93.398C103.743 93.047 105.8 92.856 107.898 92.832C113.803 92.767 119.855 93.861 125.299 96.084C123.502 103.124 116.206 109.012 108.137 108.819C104.937 108.743 101.79 108.029 98.888 106.744C98.763 111.798 98.577 121.726 98.577 121.726Z"/></svg>